<svg id="svg" version="1.1" xmlns="http://www.w3.org/2000/svg" xmlns:xlink="http://www.w3.org/1999/xlink" width="400" height="399.60668633235" viewBox="0, 0, 400,399.60668633235"><g id="svgg"><path id="path1" d="M182.891 63.674 L 182.891 71.891 180.530 71.820 L 178.170 71.750 178.269 168.037 L 178.368 264.325 194.592 264.320 C 203.515 264.318,211.967 264.314,213.373 264.311 L 215.929 264.307 215.929 256.244 L 215.929 248.181 218.486 248.181 L 221.042 248.181 221.042 151.819 L 221.042 55.457 201.967 55.457 L 182.891 55.457 182.891 63.674 " stroke="none" fill="#4c6ce4" fill-rule="evenodd"></path><path id="path2" d="M237.034 106.193 C 236.892 112.792,236.776 156.111,236.776 202.458 L 236.775 286.726 255.654 286.726 L 274.533 286.726 274.533 190.560 C 274.533 137.670,274.400 94.373,274.238 94.347 C 274.076 94.320,265.696 94.275,255.617 94.246 L 237.291 94.194 237.034 106.193 " stroke="none" fill="#3c3434" fill-rule="evenodd"></path><path id="path3" d="M168.535 327.278 C 166.210 328.623,165.605 331.801,167.321 333.653 C 171.055 337.681,177.585 332.475,173.930 328.384 C 172.705 327.014,169.963 326.451,168.535 327.278 M230.875 335.057 C 230.875 338.327,230.831 341.002,230.777 341.001 C 230.723 341.000,229.808 340.558,228.744 340.018 C 219.892 335.527,211.911 347.827,216.096 359.511 C 218.295 365.651,224.755 367.673,229.748 363.785 L 231.177 362.671 231.410 363.833 L 231.642 364.995 234.995 364.995 L 238.348 364.995 238.348 347.524 L 238.348 330.053 237.266 329.841 C 236.672 329.725,234.990 329.513,233.530 329.371 L 230.875 329.112 230.875 335.057 M199.663 339.588 C 198.828 339.899,197.475 340.692,196.656 341.350 L 195.166 342.547 194.910 341.185 L 194.655 339.823 191.329 339.823 L 188.004 339.823 188.004 352.409 L 188.004 364.995 191.740 364.995 L 195.477 364.995 195.477 356.186 L 195.477 347.377 196.861 346.162 C 201.474 342.112,202.551 344.056,202.554 356.441 L 202.557 364.995 206.293 364.995 L 210.029 364.995 210.012 355.654 C 209.990 343.600,209.718 342.274,206.821 340.110 C 205.490 339.117,201.675 338.839,199.663 339.588 M260.570 339.757 C 258.855 340.578,257.349 342.045,256.136 344.076 L 255.357 345.378 254.677 342.601 L 253.996 339.823 249.515 339.823 L 245.034 339.823 245.034 342.380 L 245.034 344.936 246.608 344.936 L 248.181 344.936 248.181 352.409 L 248.181 359.882 246.608 359.882 L 245.034 359.882 245.034 362.439 L 245.034 364.995 252.901 364.995 L 260.767 364.995 260.767 362.439 L 260.767 359.882 258.210 359.882 L 255.654 359.882 255.654 356.405 C 255.654 352.175,257.075 348.749,259.517 347.089 C 261.650 345.640,261.947 345.786,261.947 348.279 L 261.947 350.442 264.264 350.442 C 266.968 350.442,266.739 350.871,267.479 344.425 C 267.821 341.436,267.842 340.055,267.549 339.761 C 266.731 338.943,262.276 338.940,260.570 339.757 M128.450 340.511 C 128.535 340.890,129.321 346.155,130.195 352.212 C 131.069 358.269,131.872 363.630,131.980 364.124 C 132.170 364.997,132.287 365.019,136.181 364.910 L 140.188 364.798 141.205 357.240 C 141.765 353.083,142.313 349.592,142.422 349.482 C 142.532 349.372,143.056 352.773,143.587 357.040 L 144.552 364.798 148.684 364.909 L 152.816 365.020 154.603 352.421 L 156.390 339.823 153.146 339.823 L 149.901 339.823 149.684 341.495 C 149.396 343.714,148.279 357.321,148.279 358.608 C 148.279 360.948,147.869 358.797,146.853 351.121 L 145.773 342.970 142.589 342.970 L 139.406 342.970 138.257 351.019 C 137.625 355.445,137.016 358.976,136.905 358.865 C 136.718 358.678,135.364 343.345,135.320 340.905 L 135.300 339.823 131.797 339.823 C 128.664 339.823,128.310 339.896,128.450 340.511 M160.865 342.380 L 160.865 344.936 164.208 344.936 L 167.552 344.936 167.552 352.409 L 167.552 359.882 164.012 359.882 L 160.472 359.882 160.472 362.439 L 160.472 364.995 171.091 364.995 L 181.711 364.995 181.711 362.439 L 181.711 359.882 178.368 359.882 L 175.025 359.882 175.025 349.853 L 175.025 339.823 167.945 339.823 L 160.865 339.823 160.865 342.380 M229.654 345.684 L 230.875 346.825 230.875 352.204 L 230.875 357.583 229.746 358.712 C 226.019 362.439,222.864 359.747,222.854 352.831 C 222.843 345.587,225.999 342.270,229.654 345.684 " stroke="none" fill="#040404" fill-rule="evenodd"></path><path id="path4" d="M231.843 110.471 C 231.743 110.571,231.662 153.987,231.662 206.952 L 231.662 303.252 250.637 303.150 L 269.612 303.048 269.619 294.887 L 269.626 286.726 253.201 286.726 L 236.777 286.726 236.677 198.534 L 236.578 110.342 234.301 110.316 C 233.049 110.301,231.943 110.371,231.843 110.471 M230.676 329.302 C 230.376 330.145,230.270 341.004,230.561 341.004 C 230.713 341.003,230.890 338.259,230.954 334.906 C 231.069 328.959,231.036 328.289,230.676 329.302 M175.196 349.853 C 175.196 355.477,175.251 357.723,175.319 354.844 C 175.386 351.965,175.386 347.363,175.318 344.618 C 175.251 341.873,175.196 344.228,175.196 349.853 M257.792 341.495 L 256.637 342.773 257.915 341.618 C 258.618 340.982,259.194 340.407,259.194 340.339 C 259.194 340.036,258.869 340.303,257.792 341.495 M195.653 347.404 C 195.548 347.679,195.509 351.794,195.568 356.548 L 195.675 365.192 195.871 356.047 C 196.063 347.094,196.045 346.383,195.653 347.404 M230.637 352.212 C 230.638 355.241,230.699 356.428,230.774 354.850 C 230.849 353.272,230.849 350.794,230.773 349.344 C 230.698 347.893,230.636 349.184,230.637 352.212 M202.332 356.146 C 202.332 361.121,202.389 363.102,202.457 360.548 C 202.526 357.994,202.526 353.923,202.457 351.502 C 202.388 349.080,202.332 351.170,202.332 356.146 M142.183 350.049 C 142.035 350.514,142.003 350.984,142.111 351.092 C 142.219 351.200,142.429 350.908,142.576 350.442 C 142.724 349.977,142.756 349.508,142.648 349.400 C 142.540 349.292,142.331 349.584,142.183 350.049 M222.728 352.606 C 222.731 353.687,222.807 354.083,222.898 353.485 C 222.988 352.887,222.986 352.002,222.892 351.519 C 222.799 351.035,222.725 351.524,222.728 352.606 M214.841 352.409 C 214.841 353.166,214.921 353.476,215.020 353.097 C 215.119 352.719,215.119 352.099,215.020 351.721 C 214.921 351.342,214.841 351.652,214.841 352.409 M255.796 356.342 C 255.796 358.397,255.862 359.238,255.943 358.210 C 256.024 357.183,256.024 355.501,255.943 354.474 C 255.862 353.446,255.796 354.287,255.796 356.342 M136.525 357.129 C 136.507 357.670,136.663 358.378,136.873 358.702 C 137.359 359.453,137.359 358.645,136.873 357.129 L 136.558 356.146 136.525 357.129 " stroke="none" fill="#343434" fill-rule="evenodd"></path><path id="path0" d="M130.135 17.601 C 130.107 17.763,130.041 21.259,129.989 25.369 C 129.937 29.479,129.871 33.063,129.844 33.333 C 129.809 33.671,128.993 33.825,127.237 33.825 L 124.680 33.825 124.680 129.983 L 124.680 226.140 143.555 226.246 C 155.890 226.315,162.470 226.216,162.547 225.959 C 162.611 225.742,162.645 222.166,162.622 218.010 L 162.581 210.456 165.165 210.341 L 167.748 210.226 167.847 113.766 L 167.947 17.306 149.067 17.306 C 138.683 17.306,130.164 17.439,130.135 17.601 " stroke="none" fill="#c4ecfc" fill-rule="evenodd"></path><path id="path1" d="M182.891 63.674 L 182.891 71.891 180.530 71.820 L 178.170 71.750 178.269 168.037 L 178.368 264.325 194.592 264.320 C 203.515 264.318,211.967 264.314,213.373 264.311 L 215.929 264.307 215.929 256.244 L 215.929 248.181 218.486 248.181 L 221.042 248.181 221.042 151.819 L 221.042 55.457 201.967 55.457 L 182.891 55.457 182.891 63.674 " stroke="none" fill="#4c6ce4" fill-rule="evenodd"></path><path id="path2" d="M237.034 106.193 C 236.892 112.792,236.776 156.111,236.776 202.458 L 236.775 286.726 255.654 286.726 L 274.533 286.726 274.533 190.560 C 274.533 137.670,274.400 94.373,274.238 94.347 C 274.076 94.320,265.696 94.275,255.617 94.246 L 237.291 94.194 237.034 106.193 " stroke="none" fill="#3c3434" fill-rule="evenodd"></path><path id="path3" d="M168.535 327.278 C 166.210 328.623,165.605 331.801,167.321 333.653 C 171.055 337.681,177.585 332.475,173.930 328.384 C 172.705 327.014,169.963 326.451,168.535 327.278 M230.875 335.057 C 230.875 338.327,230.831 341.002,230.777 341.001 C 230.723 341.000,229.808 340.558,228.744 340.018 C 219.892 335.527,211.911 347.827,216.096 359.511 C 218.295 365.651,224.755 367.673,229.748 363.785 L 231.177 362.671 231.410 363.833 L 231.642 364.995 234.995 364.995 L 238.348 364.995 238.348 347.524 L 238.348 330.053 237.266 329.841 C 236.672 329.725,234.990 329.513,233.530 329.371 L 230.875 329.112 230.875 335.057 M199.663 339.588 C 198.828 339.899,197.475 340.692,196.656 341.350 L 195.166 342.547 194.910 341.185 L 194.655 339.823 191.329 339.823 L 188.004 339.823 188.004 352.409 L 188.004 364.995 191.740 364.995 L 195.477 364.995 195.477 356.186 L 195.477 347.377 196.861 346.162 C 201.474 342.112,202.551 344.056,202.554 356.441 L 202.557 364.995 206.293 364.995 L 210.029 364.995 210.012 355.654 C 209.990 343.600,209.718 342.274,206.821 340.110 C 205.490 339.117,201.675 338.839,199.663 339.588 M260.570 339.757 C 258.855 340.578,257.349 342.045,256.136 344.076 L 255.357 345.378 254.677 342.601 L 253.996 339.823 249.515 339.823 L 245.034 339.823 245.034 342.380 L 245.034 344.936 246.608 344.936 L 248.181 344.936 248.181 352.409 L 248.181 359.882 246.608 359.882 L 245.034 359.882 245.034 362.439 L 245.034 364.995 252.901 364.995 L 260.767 364.995 260.767 362.439 L 260.767 359.882 258.210 359.882 L 255.654 359.882 255.654 356.405 C 255.654 352.175,257.075 348.749,259.517 347.089 C 261.650 345.640,261.947 345.786,261.947 348.279 L 261.947 350.442 264.264 350.442 C 266.968 350.442,266.739 350.871,267.479 344.425 C 267.821 341.436,267.842 340.055,267.549 339.761 C 266.731 338.943,262.276 338.940,260.570 339.757 M128.450 340.511 C 128.535 340.890,129.321 346.155,130.195 352.212 C 131.069 358.269,131.872 363.630,131.980 364.124 C 132.170 364.997,132.287 365.019,136.181 364.910 L 140.188 364.798 141.205 357.240 C 141.765 353.083,142.313 349.592,142.422 349.482 C 142.532 349.372,143.056 352.773,143.587 357.040 L 144.552 364.798 148.684 364.909 L 152.816 365.020 154.603 352.421 L 156.390 339.823 153.146 339.823 L 149.901 339.823 149.684 341.495 C 149.396 343.714,148.279 357.321,148.279 358.608 C 148.279 360.948,147.869 358.797,146.853 351.121 L 145.773 342.970 142.589 342.970 L 139.406 342.970 138.257 351.019 C 137.625 355.445,137.016 358.976,136.905 358.865 C 136.718 358.678,135.364 343.345,135.320 340.905 L 135.300 339.823 131.797 339.823 C 128.664 339.823,128.310 339.896,128.450 340.511 M160.865 342.380 L 160.865 344.936 164.208 344.936 L 167.552 344.936 167.552 352.409 L 167.552 359.882 164.012 359.882 L 160.472 359.882 160.472 362.439 L 160.472 364.995 171.091 364.995 L 181.711 364.995 181.711 362.439 L 181.711 359.882 178.368 359.882 L 175.025 359.882 175.025 349.853 L 175.025 339.823 167.945 339.823 L 160.865 339.823 160.865 342.380 M229.654 345.684 L 230.875 346.825 230.875 352.204 L 230.875 357.583 229.746 358.712 C 226.019 362.439,222.864 359.747,222.854 352.831 C 222.843 345.587,225.999 342.270,229.654 345.684 " stroke="none" fill="#040404" fill-rule="evenodd"></path><path id="path4" d="M231.843 110.471 C 231.743 110.571,231.662 153.987,231.662 206.952 L 231.662 303.252 250.637 303.150 L 269.612 303.048 269.619 294.887 L 269.626 286.726 253.201 286.726 L 236.777 286.726 236.677 198.534 L 236.578 110.342 234.301 110.316 C 233.049 110.301,231.943 110.371,231.843 110.471 M230.676 329.302 C 230.376 330.145,230.270 341.004,230.561 341.004 C 230.713 341.003,230.890 338.259,230.954 334.906 C 231.069 328.959,231.036 328.289,230.676 329.302 M175.196 349.853 C 175.196 355.477,175.251 357.723,175.319 354.844 C 175.386 351.965,175.386 347.363,175.318 344.618 C 175.251 341.873,175.196 344.228,175.196 349.853 M257.792 341.495 L 256.637 342.773 257.915 341.618 C 258.618 340.982,259.194 340.407,259.194 340.339 C 259.194 340.036,258.869 340.303,257.792 341.495 M195.653 347.404 C 195.548 347.679,195.509 351.794,195.568 356.548 L 195.675 365.192 195.871 356.047 C 196.063 347.094,196.045 346.383,195.653 347.404 M230.637 352.212 C 230.638 355.241,230.699 356.428,230.774 354.850 C 230.849 353.272,230.849 350.794,230.773 349.344 C 230.698 347.893,230.636 349.184,230.637 352.212 M202.332 356.146 C 202.332 361.121,202.389 363.102,202.457 360.548 C 202.526 357.994,202.526 353.923,202.457 351.502 C 202.388 349.080,202.332 351.170,202.332 356.146 M142.183 350.049 C 142.035 350.514,142.003 350.984,142.111 351.092 C 142.219 351.200,142.429 350.908,142.576 350.442 C 142.724 349.977,142.756 349.508,142.648 349.400 C 142.540 349.292,142.331 349.584,142.183 350.049 M222.728 352.606 C 222.731 353.687,222.807 354.083,222.898 353.485 C 222.988 352.887,222.986 352.002,222.892 351.519 C 222.799 351.035,222.725 351.524,222.728 352.606 M214.841 352.409 C 214.841 353.166,214.921 353.476,215.020 353.097 C 215.119 352.719,215.119 352.099,215.020 351.721 C 214.921 351.342,214.841 351.652,214.841 352.409 M255.796 356.342 C 255.796 358.397,255.862 359.238,255.943 358.210 C 256.024 357.183,256.024 355.501,255.943 354.474 C 255.862 353.446,255.796 354.287,255.796 356.342 M136.525 357.129 C 136.507 357.670,136.663 358.378,136.873 358.702 C 137.359 359.453,137.359 358.645,136.873 357.129 L 136.558 356.146 136.525 357.129 " stroke="none" fill="#343434" fill-rule="evenodd"></path></g></svg>